<?xml version="1.0" encoding="UTF-8"?>
<svg id="Layer_1" xmlns="http://www.w3.org/2000/svg" version="1.1" viewBox="0 0 50 50">
  <!-- Generator: Adobe Illustrator 30.4.0, SVG Export Plug-In . SVG Version: 2.1.3 Build 103)  -->
  <defs>
    <style>
      .st0 {
        fill: #0089cf;
      }

      .st1 {
        fill: #fff;
      }
    </style>
  </defs>
  <rect class="st0" width="50" height="50" rx="2.48" ry="2.48"/>
  <path class="st1" d="M17.17,25.91c-.07.33-.15.86-.23,1.59l-.06.48h-.05c-.04-.54-.14-1.2-.33-2l-1.82-7.9h-3.5v12.97h2.07v-6.88c0-1.18-.03-2.39-.09-3.61h.07l.35,2.3,1.98,8.18h2.28l1.89-8.3c.18-.9.31-1.63.39-2.18h.06c-.06,1.31-.09,2.29-.09,2.94v7.54h2.14v-12.97h-3.36l-1.71,7.82ZM35.53,26.63h1.04c1.24,0,2.23-.42,2.98-1.25.75-.84,1.13-1.89,1.13-3.17,0-1.34-.34-2.37-1.03-3.08-.68-.7-1.64-1.06-2.87-1.06h-3.74v12.97h2.49v-4.42ZM35.53,20.26h.83c.51,0,.93.17,1.25.52.32.35.48.87.48,1.57,0,1.42-.57,2.13-1.7,2.13h-.86v-4.22ZM26.29,31.06h2.67l3.31-12.97h-2.51l-1.8,8.5c-.08.47-.15.92-.19,1.35l-.05.34h-.06c-.04-.66-.11-1.21-.2-1.64l-1.8-8.55h-2.59l3.22,12.97ZM25.01,46.5L3.5,24.99,24.99,3.5l21.51,21.51-21.49,21.49Z"/>
</svg>